<mxfile host="app.diagrams.net" modified="2024-02-24T13:02:54.012Z" agent="Mozilla/5.0 (Windows NT 10.0; Win64; x64) AppleWebKit/537.36 (KHTML, like Gecko) Chrome/114.0.0.0 Safari/537.36" etag="LcEWOQbwF-c6w6qbG5bO" version="23.1.6" type="github">
  <diagram name="第 1 页" id="52qZ-WHdl-cmcaaZP1iw">
    <mxGraphModel dx="1434" dy="764" grid="1" gridSize="10" guides="1" tooltips="1" connect="1" arrows="1" fold="1" page="1" pageScale="1" pageWidth="827" pageHeight="1169" math="0" shadow="0">
      <root>
        <mxCell id="0" />
        <mxCell id="1" parent="0" />
        <mxCell id="dfY8l3EPSoSDLxl2A7Pv-3" style="edgeStyle=orthogonalEdgeStyle;rounded=0;orthogonalLoop=1;jettySize=auto;html=1;entryX=0;entryY=0.5;entryDx=0;entryDy=0;" edge="1" parent="1" source="dfY8l3EPSoSDLxl2A7Pv-1" target="dfY8l3EPSoSDLxl2A7Pv-2">
          <mxGeometry relative="1" as="geometry" />
        </mxCell>
        <mxCell id="dfY8l3EPSoSDLxl2A7Pv-1" value="1234" style="rounded=1;whiteSpace=wrap;html=1;" vertex="1" parent="1">
          <mxGeometry x="150" y="230" width="120" height="60" as="geometry" />
        </mxCell>
        <mxCell id="dfY8l3EPSoSDLxl2A7Pv-2" value="" style="rounded=1;whiteSpace=wrap;html=1;" vertex="1" parent="1">
          <mxGeometry x="470" y="230" width="120" height="60" as="geometry" />
        </mxCell>
      </root>
    </mxGraphModel>
  </diagram>
</mxfile>
